<svg width="104" height="29" viewBox="0 0 104 29" fill="none" xmlns="http://www.w3.org/2000/svg">
<path d="M4.452 6.71845C5.74 6.71845 6.678 6.99845 7.266 7.55845C7.86333 8.10911 8.162 8.86978 8.162 9.84045C8.162 10.2791 8.09667 10.6991 7.966 11.1004C7.83533 11.4924 7.616 11.8471 7.308 12.1644C7.00933 12.4724 6.61267 12.7151 6.118 12.8924C5.62333 13.0698 5.012 13.1584 4.284 13.1584H3.374V16.7144H1.26V6.71845H4.452ZM4.34 8.45445H3.374V11.4224H4.074C4.47533 11.4224 4.82067 11.3711 5.11 11.2684C5.39933 11.1658 5.62333 11.0024 5.782 10.7784C5.94067 10.5544 6.02 10.2651 6.02 9.91045C6.02 9.41578 5.88467 9.05178 5.614 8.81845C5.34333 8.57578 4.91867 8.45445 4.34 8.45445ZM14.153 8.93045C14.2557 8.93045 14.377 8.93511 14.517 8.94445C14.657 8.95378 14.769 8.96778 14.853 8.98645L14.699 10.9464C14.6337 10.9278 14.5357 10.9138 14.405 10.9044C14.2837 10.8858 14.1763 10.8764 14.083 10.8764C13.8123 10.8764 13.551 10.9138 13.299 10.9884C13.047 11.0538 12.8183 11.1611 12.613 11.3104C12.417 11.4598 12.2583 11.6604 12.137 11.9124C12.025 12.1551 11.969 12.4584 11.969 12.8224V16.7144H9.88302V9.07045H11.465L11.773 10.3584H11.871C12.0203 10.0971 12.207 9.85911 12.431 9.64445C12.655 9.42978 12.9117 9.25711 13.201 9.12645C13.4997 8.99578 13.817 8.93045 14.153 8.93045ZM22.911 12.8784C22.911 13.5131 22.8223 14.0778 22.645 14.5724C22.477 15.0671 22.2297 15.4871 21.903 15.8324C21.5857 16.1684 21.1983 16.4251 20.741 16.6024C20.2837 16.7704 19.7657 16.8544 19.187 16.8544C18.655 16.8544 18.1603 16.7704 17.703 16.6024C17.255 16.4251 16.8677 16.1684 16.541 15.8324C16.2143 15.4871 15.9577 15.0671 15.771 14.5724C15.5937 14.0778 15.505 13.5131 15.505 12.8784C15.505 12.0291 15.6543 11.3151 15.953 10.7364C16.2517 10.1484 16.681 9.70045 17.241 9.39245C17.801 9.08445 18.4637 8.93045 19.229 8.93045C19.9477 8.93045 20.5823 9.08445 21.133 9.39245C21.6837 9.70045 22.1177 10.1484 22.435 10.7364C22.7523 11.3151 22.911 12.0291 22.911 12.8784ZM17.633 12.8784C17.633 13.3824 17.6843 13.8071 17.787 14.1524C17.899 14.4884 18.0717 14.7451 18.305 14.9224C18.5383 15.0904 18.8417 15.1744 19.215 15.1744C19.5883 15.1744 19.887 15.0904 20.111 14.9224C20.3443 14.7451 20.5123 14.4884 20.615 14.1524C20.727 13.8071 20.783 13.3824 20.783 12.8784C20.783 12.3744 20.727 11.9544 20.615 11.6184C20.5123 11.2824 20.3443 11.0304 20.111 10.8624C19.8777 10.6944 19.5743 10.6104 19.201 10.6104C18.6503 10.6104 18.249 10.8018 17.997 11.1844C17.7543 11.5578 17.633 12.1224 17.633 12.8784ZM28.891 8.93045C29.7496 8.93045 30.445 9.26645 30.977 9.93845C31.509 10.6011 31.775 11.5811 31.775 12.8784C31.775 13.7464 31.649 14.4791 31.397 15.0764C31.145 15.6644 30.7996 16.1078 30.361 16.4064C29.9223 16.7051 29.4136 16.8544 28.835 16.8544C28.471 16.8544 28.1536 16.8078 27.883 16.7144C27.6216 16.6211 27.3976 16.4998 27.211 16.3504C27.0243 16.2011 26.861 16.0424 26.721 15.8744H26.609C26.6463 16.0518 26.6743 16.2384 26.693 16.4344C26.7116 16.6211 26.721 16.8078 26.721 16.9944V20.0744H24.635V9.07045H26.329L26.623 10.0644H26.721C26.861 9.85911 27.029 9.67245 27.225 9.50445C27.421 9.32711 27.6543 9.18711 27.925 9.08445C28.205 8.98178 28.527 8.93045 28.891 8.93045ZM28.219 10.5964C27.855 10.5964 27.5656 10.6711 27.351 10.8204C27.1363 10.9698 26.9776 11.1984 26.875 11.5064C26.7816 11.8051 26.7303 12.1831 26.721 12.6404V12.8644C26.721 13.3591 26.7676 13.7791 26.861 14.1244C26.9543 14.4604 27.113 14.7171 27.337 14.8944C27.561 15.0718 27.8643 15.1604 28.247 15.1604C28.5643 15.1604 28.8256 15.0718 29.031 14.8944C29.2363 14.7171 29.3903 14.4558 29.493 14.1104C29.5956 13.7651 29.647 13.3451 29.647 12.8504C29.647 12.1038 29.5303 11.5438 29.297 11.1704C29.073 10.7878 28.7136 10.5964 28.219 10.5964ZM38.8283 14.4464C38.8283 14.9598 38.707 15.3984 38.4643 15.7624C38.2217 16.1171 37.8577 16.3878 37.3723 16.5744C36.887 16.7611 36.285 16.8544 35.5663 16.8544C35.0343 16.8544 34.577 16.8171 34.1943 16.7424C33.8117 16.6771 33.429 16.5651 33.0463 16.4064V14.6844C33.457 14.8711 33.9003 15.0251 34.3763 15.1464C34.8523 15.2678 35.2723 15.3284 35.6363 15.3284C36.047 15.3284 36.3363 15.2678 36.5043 15.1464C36.6817 15.0251 36.7703 14.8664 36.7703 14.6704C36.7703 14.5398 36.733 14.4231 36.6583 14.3204C36.593 14.2178 36.4437 14.1011 36.2103 13.9704C35.977 13.8398 35.613 13.6718 35.1183 13.4664C34.6423 13.2611 34.2503 13.0604 33.9423 12.8644C33.6343 12.6591 33.4057 12.4164 33.2563 12.1364C33.107 11.8471 33.0323 11.4878 33.0323 11.0584C33.0323 10.3491 33.3077 9.81711 33.8583 9.46245C34.409 9.10778 35.1417 8.93045 36.0563 8.93045C36.5323 8.93045 36.985 8.97711 37.4143 9.07045C37.8437 9.16378 38.287 9.31778 38.7443 9.53245L38.1143 11.0304C37.8623 10.9184 37.6197 10.8204 37.3863 10.7364C37.153 10.6524 36.9243 10.5871 36.7003 10.5404C36.4857 10.4938 36.2617 10.4704 36.0283 10.4704C35.7203 10.4704 35.487 10.5124 35.3283 10.5964C35.179 10.6804 35.1043 10.8064 35.1043 10.9744C35.1043 11.0958 35.1417 11.2078 35.2163 11.3104C35.3003 11.4038 35.4543 11.5064 35.6783 11.6184C35.9117 11.7304 36.2523 11.8798 36.7003 12.0664C37.139 12.2438 37.517 12.4304 37.8343 12.6264C38.1517 12.8131 38.3943 13.0511 38.5623 13.3404C38.7397 13.6204 38.8283 13.9891 38.8283 14.4464Z" fill="#0FB7DC"/>
<path d="M44.8493 16.7144L42.4413 8.87445H42.3853C42.3947 9.06111 42.4087 9.34111 42.4273 9.71445C42.446 10.0878 42.4647 10.4891 42.4833 10.9184C42.502 11.3384 42.5113 11.7211 42.5113 12.0664V16.7144H40.6213V6.71845H43.5053L45.8713 14.3624H45.9133L48.4193 6.71845H51.3033V16.7144H49.3293V11.9824C49.3293 11.6651 49.334 11.3011 49.3433 10.8904C49.362 10.4798 49.376 10.0924 49.3853 9.72845C49.404 9.35511 49.418 9.07511 49.4273 8.88845H49.3713L46.7953 16.7144H44.8493ZM56.7964 8.91645C57.823 8.91645 58.607 9.14045 59.1484 9.58845C59.699 10.0271 59.9744 10.7038 59.9744 11.6184V16.7144H58.5184L58.1124 15.6784H58.0564C57.8417 15.9491 57.6177 16.1731 57.3844 16.3504C57.1604 16.5278 56.899 16.6538 56.6004 16.7284C56.311 16.8124 55.9517 16.8544 55.5224 16.8544C55.0744 16.8544 54.6684 16.7704 54.3044 16.6024C53.9497 16.4251 53.6697 16.1591 53.4644 15.8044C53.259 15.4404 53.1564 14.9831 53.1564 14.4324C53.1564 13.6204 53.441 13.0231 54.0104 12.6404C54.5797 12.2484 55.4337 12.0338 56.5724 11.9964L57.9024 11.9544V11.6184C57.9024 11.2171 57.795 10.9231 57.5804 10.7364C57.375 10.5498 57.0857 10.4564 56.7124 10.4564C56.339 10.4564 55.975 10.5124 55.6204 10.6244C55.2657 10.7271 54.911 10.8578 54.5564 11.0164L53.8704 9.60245C54.281 9.38778 54.7337 9.21978 55.2284 9.09845C55.7324 8.97711 56.255 8.91645 56.7964 8.91645ZM57.0904 13.2004C56.4184 13.2191 55.9517 13.3404 55.6904 13.5644C55.429 13.7884 55.2984 14.0824 55.2984 14.4464C55.2984 14.7638 55.3917 14.9924 55.5784 15.1324C55.765 15.2631 56.0077 15.3284 56.3064 15.3284C56.7544 15.3284 57.1324 15.1978 57.4404 14.9364C57.7484 14.6658 57.9024 14.2878 57.9024 13.8024V13.1724L57.0904 13.2004ZM66.4496 8.93045C67.2709 8.93045 67.9289 9.15445 68.4236 9.60245C68.9182 10.0411 69.1656 10.7504 69.1656 11.7304V16.7144H67.0796V12.2484C67.0796 11.6978 66.9816 11.2871 66.7856 11.0164C66.5896 10.7364 66.2769 10.5964 65.8476 10.5964C65.2129 10.5964 64.7789 10.8158 64.5456 11.2544C64.3122 11.6838 64.1956 12.3044 64.1956 13.1164V16.7144H62.1096V9.07045H63.7056L63.9856 10.0504H64.0976C64.2656 9.78911 64.4709 9.57911 64.7136 9.42045C64.9562 9.25245 65.2269 9.13111 65.5256 9.05645C65.8242 8.97245 66.1322 8.93045 66.4496 8.93045ZM74.4468 8.91645C75.4734 8.91645 76.2574 9.14045 76.7988 9.58845C77.3494 10.0271 77.6248 10.7038 77.6248 11.6184V16.7144H76.1688L75.7628 15.6784H75.7068C75.4921 15.9491 75.2681 16.1731 75.0348 16.3504C74.8108 16.5278 74.5494 16.6538 74.2508 16.7284C73.9614 16.8124 73.6021 16.8544 73.1728 16.8544C72.7248 16.8544 72.3188 16.7704 71.9548 16.6024C71.6001 16.4251 71.3201 16.1591 71.1148 15.8044C70.9094 15.4404 70.8068 14.9831 70.8068 14.4324C70.8068 13.6204 71.0914 13.0231 71.6608 12.6404C72.2301 12.2484 73.0841 12.0338 74.2228 11.9964L75.5528 11.9544V11.6184C75.5528 11.2171 75.4454 10.9231 75.2308 10.7364C75.0254 10.5498 74.7361 10.4564 74.3628 10.4564C73.9894 10.4564 73.6254 10.5124 73.2708 10.6244C72.9161 10.7271 72.5614 10.8578 72.2068 11.0164L71.5208 9.60245C71.9314 9.38778 72.3841 9.21978 72.8788 9.09845C73.3828 8.97711 73.9054 8.91645 74.4468 8.91645ZM74.7408 13.2004C74.0688 13.2191 73.6021 13.3404 73.3408 13.5644C73.0794 13.7884 72.9488 14.0824 72.9488 14.4464C72.9488 14.7638 73.0421 14.9924 73.2288 15.1324C73.4154 15.2631 73.6581 15.3284 73.9568 15.3284C74.4048 15.3284 74.7828 15.1978 75.0908 14.9364C75.3988 14.6658 75.5528 14.2878 75.5528 13.8024V13.1724L74.7408 13.2004ZM82.238 8.93045C82.7046 8.93045 83.1246 9.02378 83.498 9.21045C83.8713 9.39711 84.1886 9.67711 84.45 10.0504H84.506L84.674 9.07045H86.438V16.7284C86.438 17.4564 86.2933 18.0678 86.004 18.5624C85.724 19.0571 85.2993 19.4304 84.73 19.6824C84.1606 19.9438 83.456 20.0744 82.616 20.0744C82.0746 20.0744 81.5706 20.0418 81.104 19.9764C80.6466 19.9111 80.1986 19.7944 79.76 19.6264V17.9604C80.0773 18.0911 80.3946 18.1984 80.712 18.2824C81.0386 18.3758 81.37 18.4411 81.706 18.4784C82.0513 18.5251 82.3966 18.5484 82.742 18.5484C83.2833 18.5484 83.6846 18.4038 83.946 18.1144C84.2166 17.8251 84.352 17.3911 84.352 16.8124V16.6584C84.352 16.4998 84.3566 16.3364 84.366 16.1684C84.3846 16.0004 84.3986 15.8511 84.408 15.7204H84.352C84.0906 16.1218 83.778 16.4111 83.414 16.5884C83.05 16.7658 82.6393 16.8544 82.182 16.8544C81.2766 16.8544 80.5673 16.5091 80.054 15.8184C79.55 15.1184 79.298 14.1478 79.298 12.9064C79.298 12.0664 79.4146 11.3524 79.648 10.7644C79.8813 10.1671 80.2173 9.71445 80.656 9.40645C81.104 9.08911 81.6313 8.93045 82.238 8.93045ZM82.896 10.6244C82.5693 10.6244 82.294 10.7131 82.07 10.8904C81.8553 11.0584 81.692 11.3151 81.58 11.6604C81.4773 11.9964 81.426 12.4211 81.426 12.9344C81.426 13.6998 81.5473 14.2738 81.79 14.6564C82.0326 15.0298 82.4106 15.2164 82.924 15.2164C83.1946 15.2164 83.428 15.1838 83.624 15.1184C83.82 15.0438 83.9786 14.9271 84.1 14.7684C84.2306 14.6004 84.3286 14.3858 84.394 14.1244C84.4593 13.8631 84.492 13.5458 84.492 13.1724V12.9204C84.492 12.3698 84.436 11.9264 84.324 11.5904C84.212 11.2544 84.0393 11.0118 83.806 10.8624C83.5726 10.7038 83.2693 10.6244 82.896 10.6244ZM91.7693 8.93045C92.4787 8.93045 93.0853 9.06578 93.5893 9.33645C94.1027 9.60711 94.4993 9.99911 94.7793 10.5124C95.0593 11.0258 95.1993 11.6558 95.1993 12.4024V13.4104H90.2713C90.29 13.9984 90.4627 14.4604 90.7893 14.7964C91.1253 15.1324 91.5873 15.3004 92.1753 15.3004C92.67 15.3004 93.118 15.2538 93.5193 15.1604C93.9207 15.0578 94.336 14.9038 94.7653 14.6984V16.3084C94.392 16.4951 93.9953 16.6304 93.5753 16.7144C93.1647 16.8078 92.6653 16.8544 92.0773 16.8544C91.312 16.8544 90.6353 16.7144 90.0473 16.4344C89.4593 16.1451 88.9973 15.7111 88.6613 15.1324C88.3253 14.5538 88.1573 13.8258 88.1573 12.9484C88.1573 12.0524 88.3067 11.3104 88.6053 10.7224C88.9133 10.1251 89.338 9.67711 89.8793 9.37845C90.4207 9.07978 91.0507 8.93045 91.7693 8.93045ZM91.7833 10.4144C91.382 10.4144 91.046 10.5451 90.7753 10.8064C90.514 11.0678 90.36 11.4738 90.3133 12.0244H93.2393C93.2393 11.7164 93.1833 11.4411 93.0713 11.1984C92.9687 10.9558 92.81 10.7644 92.5953 10.6244C92.3807 10.4844 92.11 10.4144 91.7833 10.4144ZM101.161 8.93045C101.263 8.93045 101.385 8.93511 101.525 8.94445C101.665 8.95378 101.777 8.96778 101.861 8.98645L101.707 10.9464C101.641 10.9278 101.543 10.9138 101.413 10.9044C101.291 10.8858 101.184 10.8764 101.091 10.8764C100.82 10.8764 100.559 10.9138 100.307 10.9884C100.055 11.0538 99.8262 11.1611 99.6208 11.3104C99.4248 11.4598 99.2662 11.6604 99.1448 11.9124C99.0328 12.1551 98.9768 12.4584 98.9768 12.8224V16.7144H96.8908V9.07045H98.4728L98.7808 10.3584H98.8788C99.0282 10.0971 99.2148 9.85911 99.4388 9.64445C99.6628 9.42978 99.9195 9.25711 100.209 9.12645C100.507 8.99578 100.825 8.93045 101.161 8.93045Z" fill="black"/>
<path d="M24.5 1.5L33 9L24.5 4.79798L16 9L24.5 1.5Z" fill="black"/>
<rect x="16" y="19" width="6" height="2" fill="black"/>
</svg>
