<svg width="117" height="23" viewBox="0 0 117 23" fill="none" xmlns="http://www.w3.org/2000/svg">
<path d="M5.088 6.576C6.56 6.576 7.632 6.896 8.304 7.536C8.98667 8.16533 9.328 9.03467 9.328 10.144C9.328 10.6453 9.25333 11.1253 9.104 11.584C8.95467 12.032 8.704 12.4373 8.352 12.8C8.01067 13.152 7.55733 13.4293 6.992 13.632C6.42667 13.8347 5.728 13.936 4.896 13.936H3.856V18H1.44V6.576H5.088ZM4.96 8.56H3.856V11.952H4.656C5.11467 11.952 5.50933 11.8933 5.84 11.776C6.17067 11.6587 6.42667 11.472 6.608 11.216C6.78933 10.96 6.88 10.6293 6.88 10.224C6.88 9.65867 6.72533 9.24267 6.416 8.976C6.10667 8.69867 5.62133 8.56 4.96 8.56ZM16.1749 9.104C16.2922 9.104 16.4309 9.10933 16.5909 9.12C16.7509 9.13067 16.8789 9.14667 16.9749 9.168L16.7989 11.408C16.7242 11.3867 16.6122 11.3707 16.4629 11.36C16.3242 11.3387 16.2015 11.328 16.0949 11.328C15.7855 11.328 15.4869 11.3707 15.1989 11.456C14.9109 11.5307 14.6495 11.6533 14.4149 11.824C14.1909 11.9947 14.0095 12.224 13.8709 12.512C13.7429 12.7893 13.6789 13.136 13.6789 13.552V18H11.2949V9.264H13.1029L13.4549 10.736H13.5669C13.7375 10.4373 13.9509 10.1653 14.2069 9.92C14.4629 9.67467 14.7562 9.47733 15.0869 9.328C15.4282 9.17867 15.7909 9.104 16.1749 9.104ZM26.184 13.616C26.184 14.3413 26.0827 14.9867 25.88 15.552C25.688 16.1173 25.4053 16.5973 25.032 16.992C24.6693 17.376 24.2267 17.6693 23.704 17.872C23.1813 18.064 22.5893 18.16 21.928 18.16C21.32 18.16 20.7547 18.064 20.232 17.872C19.72 17.6693 19.2773 17.376 18.904 16.992C18.5307 16.5973 18.2373 16.1173 18.024 15.552C17.8213 14.9867 17.72 14.3413 17.72 13.616C17.72 12.6453 17.8907 11.8293 18.232 11.168C18.5733 10.496 19.064 9.984 19.704 9.632C20.344 9.28 21.1013 9.104 21.976 9.104C22.7973 9.104 23.5227 9.28 24.152 9.632C24.7813 9.984 25.2773 10.496 25.64 11.168C26.0027 11.8293 26.184 12.6453 26.184 13.616ZM20.152 13.616C20.152 14.192 20.2107 14.6773 20.328 15.072C20.456 15.456 20.6533 15.7493 20.92 15.952C21.1867 16.144 21.5333 16.24 21.96 16.24C22.3867 16.24 22.728 16.144 22.984 15.952C23.2507 15.7493 23.4427 15.456 23.56 15.072C23.688 14.6773 23.752 14.192 23.752 13.616C23.752 13.04 23.688 12.56 23.56 12.176C23.4427 11.792 23.2507 11.504 22.984 11.312C22.7173 11.12 22.3707 11.024 21.944 11.024C21.3147 11.024 20.856 11.2427 20.568 11.68C20.2907 12.1067 20.152 12.752 20.152 13.616ZM33.0183 9.104C33.9996 9.104 34.7943 9.488 35.4023 10.256C36.0103 11.0133 36.3142 12.1333 36.3142 13.616C36.3142 14.608 36.1703 15.4453 35.8823 16.128C35.5943 16.8 35.1996 17.3067 34.6983 17.648C34.1969 17.9893 33.6156 18.16 32.9543 18.16C32.5383 18.16 32.1756 18.1067 31.8663 18C31.5676 17.8933 31.3116 17.7547 31.0983 17.584C30.8849 17.4133 30.6983 17.232 30.5383 17.04H30.4103C30.4529 17.2427 30.4849 17.456 30.5063 17.68C30.5276 17.8933 30.5383 18.1067 30.5383 18.32V21.84H28.1543V9.264H30.0903L30.4263 10.4H30.5383C30.6983 10.1653 30.8903 9.952 31.1143 9.76C31.3383 9.55733 31.6049 9.39733 31.9143 9.28C32.2343 9.16267 32.6023 9.104 33.0183 9.104ZM32.2503 11.008C31.8343 11.008 31.5036 11.0933 31.2583 11.264C31.0129 11.4347 30.8316 11.696 30.7143 12.048C30.6076 12.3893 30.5489 12.8213 30.5383 13.344V13.6C30.5383 14.1653 30.5916 14.6453 30.6983 15.04C30.8049 15.424 30.9863 15.7173 31.2423 15.92C31.4983 16.1227 31.8449 16.224 32.2823 16.224C32.6449 16.224 32.9436 16.1227 33.1783 15.92C33.4129 15.7173 33.5889 15.4187 33.7063 15.024C33.8236 14.6293 33.8823 14.1493 33.8823 13.584C33.8823 12.7307 33.7489 12.0907 33.4823 11.664C33.2263 11.2267 32.8156 11.008 32.2503 11.008ZM44.3753 15.408C44.3753 15.9947 44.2366 16.496 43.9593 16.912C43.6819 17.3173 43.2659 17.6267 42.7113 17.84C42.1566 18.0533 41.4686 18.16 40.6473 18.16C40.0393 18.16 39.5166 18.1173 39.0793 18.032C38.6419 17.9573 38.2046 17.8293 37.7673 17.648V15.68C38.2366 15.8933 38.7433 16.0693 39.2873 16.208C39.8313 16.3467 40.3113 16.416 40.7273 16.416C41.1966 16.416 41.5273 16.3467 41.7193 16.208C41.9219 16.0693 42.0233 15.888 42.0233 15.664C42.0233 15.5147 41.9806 15.3813 41.8953 15.264C41.8206 15.1467 41.6499 15.0133 41.3833 14.864C41.1166 14.7147 40.7006 14.5227 40.1353 14.288C39.5913 14.0533 39.1433 13.824 38.7913 13.6C38.4393 13.3653 38.1779 13.088 38.0073 12.768C37.8366 12.4373 37.7513 12.0267 37.7513 11.536C37.7513 10.7253 38.0659 10.1173 38.6953 9.712C39.3246 9.30667 40.1619 9.104 41.2073 9.104C41.7513 9.104 42.2686 9.15733 42.7593 9.264C43.2499 9.37067 43.7566 9.54667 44.2793 9.792L43.5593 11.504C43.2713 11.376 42.9939 11.264 42.7273 11.168C42.4606 11.072 42.1993 10.9973 41.9433 10.944C41.6979 10.8907 41.4419 10.864 41.1753 10.864C40.8233 10.864 40.5566 10.912 40.3753 11.008C40.2046 11.104 40.1193 11.248 40.1193 11.44C40.1193 11.5787 40.1619 11.7067 40.2473 11.824C40.3433 11.9307 40.5193 12.048 40.7753 12.176C41.0419 12.304 41.4313 12.4747 41.9433 12.688C42.4446 12.8907 42.8766 13.104 43.2393 13.328C43.6019 13.5413 43.8793 13.8133 44.0713 14.144C44.2739 14.464 44.3753 14.8853 44.3753 15.408Z" fill="#4F46E5"/>
<path d="M51.2564 18L48.5044 9.04H48.4404C48.451 9.25333 48.467 9.57333 48.4884 10C48.5097 10.4267 48.531 10.8853 48.5524 11.376C48.5737 11.856 48.5844 12.2933 48.5844 12.688V18H46.4244V6.576H49.7204L52.4244 15.312H52.4724L55.3364 6.576H58.6324V18H56.3764V12.592C56.3764 12.2293 56.3817 11.8133 56.3924 11.344C56.4137 10.8747 56.4297 10.432 56.4404 10.016C56.4617 9.58933 56.4777 9.26933 56.4884 9.056H56.4244L53.4804 18H51.2564ZM64.9101 9.088C66.0835 9.088 66.9795 9.344 67.5981 9.856C68.2275 10.3573 68.5421 11.1307 68.5421 12.176V18H66.8781L66.4141 16.816H66.3501C66.1048 17.1253 65.8488 17.3813 65.5821 17.584C65.3261 17.7867 65.0275 17.9307 64.6861 18.016C64.3555 18.112 63.9448 18.16 63.4541 18.16C62.9421 18.16 62.4781 18.064 62.0621 17.872C61.6568 17.6693 61.3368 17.3653 61.1021 16.96C60.8675 16.544 60.7501 16.0213 60.7501 15.392C60.7501 14.464 61.0755 13.7813 61.7261 13.344C62.3768 12.896 63.3528 12.6507 64.6541 12.608L66.1741 12.56V12.176C66.1741 11.7173 66.0515 11.3813 65.8061 11.168C65.5715 10.9547 65.2408 10.848 64.8141 10.848C64.3875 10.848 63.9715 10.912 63.5661 11.04C63.1608 11.1573 62.7555 11.3067 62.3501 11.488L61.5661 9.872C62.0355 9.62667 62.5528 9.43467 63.1181 9.296C63.6941 9.15733 64.2915 9.088 64.9101 9.088ZM65.2461 13.984C64.4781 14.0053 63.9448 14.144 63.6461 14.4C63.3475 14.656 63.1981 14.992 63.1981 15.408C63.1981 15.7707 63.3048 16.032 63.5181 16.192C63.7315 16.3413 64.0088 16.416 64.3501 16.416C64.8621 16.416 65.2941 16.2667 65.6461 15.968C65.9981 15.6587 66.1741 15.2267 66.1741 14.672V13.952L65.2461 13.984ZM75.9424 9.104C76.881 9.104 77.633 9.36 78.1984 9.872C78.7637 10.3733 79.0464 11.184 79.0464 12.304V18H76.6624V12.896C76.6624 12.2667 76.5504 11.7973 76.3264 11.488C76.1024 11.168 75.745 11.008 75.2544 11.008C74.529 11.008 74.033 11.2587 73.7664 11.76C73.4997 12.2507 73.3664 12.96 73.3664 13.888V18H70.9824V9.264H72.8064L73.1264 10.384H73.2544C73.4464 10.0853 73.681 9.84533 73.9584 9.664C74.2357 9.472 74.545 9.33333 74.8864 9.248C75.2277 9.152 75.5797 9.104 75.9424 9.104ZM85.082 9.088C86.2553 9.088 87.1513 9.344 87.77 9.856C88.3993 10.3573 88.714 11.1307 88.714 12.176V18H87.05L86.586 16.816H86.522C86.2767 17.1253 86.0207 17.3813 85.754 17.584C85.498 17.7867 85.1993 17.9307 84.858 18.016C84.5273 18.112 84.1167 18.16 83.626 18.16C83.114 18.16 82.65 18.064 82.234 17.872C81.8287 17.6693 81.5087 17.3653 81.274 16.96C81.0393 16.544 80.922 16.0213 80.922 15.392C80.922 14.464 81.2473 13.7813 81.898 13.344C82.5487 12.896 83.5247 12.6507 84.826 12.608L86.346 12.56V12.176C86.346 11.7173 86.2233 11.3813 85.978 11.168C85.7433 10.9547 85.4127 10.848 84.986 10.848C84.5593 10.848 84.1433 10.912 83.738 11.04C83.3327 11.1573 82.9273 11.3067 82.522 11.488L81.738 9.872C82.2073 9.62667 82.7247 9.43467 83.29 9.296C83.866 9.15733 84.4633 9.088 85.082 9.088ZM85.418 13.984C84.65 14.0053 84.1167 14.144 83.818 14.4C83.5193 14.656 83.37 14.992 83.37 15.408C83.37 15.7707 83.4767 16.032 83.69 16.192C83.9033 16.3413 84.1807 16.416 84.522 16.416C85.034 16.416 85.466 16.2667 85.818 15.968C86.17 15.6587 86.346 15.2267 86.346 14.672V13.952L85.418 13.984ZM93.9863 9.104C94.5196 9.104 94.9996 9.21067 95.4263 9.424C95.8529 9.63733 96.2156 9.95733 96.5143 10.384H96.5783L96.7703 9.264H98.7863V18.016C98.7863 18.848 98.6209 19.5467 98.2903 20.112C97.9703 20.6773 97.4849 21.104 96.8343 21.392C96.1836 21.6907 95.3783 21.84 94.4183 21.84C93.7996 21.84 93.2236 21.8027 92.6903 21.728C92.1676 21.6533 91.6556 21.52 91.1543 21.328V19.424C91.5169 19.5733 91.8796 19.696 92.2423 19.792C92.6156 19.8987 92.9943 19.9733 93.3783 20.016C93.7729 20.0693 94.1676 20.096 94.5623 20.096C95.1809 20.096 95.6396 19.9307 95.9383 19.6C96.2476 19.2693 96.4023 18.7733 96.4023 18.112V17.936C96.4023 17.7547 96.4076 17.568 96.4183 17.376C96.4396 17.184 96.4556 17.0133 96.4663 16.864H96.4023C96.1036 17.3227 95.7463 17.6533 95.3303 17.856C94.9143 18.0587 94.4449 18.16 93.9223 18.16C92.8876 18.16 92.0769 17.7653 91.4903 16.976C90.9143 16.176 90.6263 15.0667 90.6263 13.648C90.6263 12.688 90.7596 11.872 91.0263 11.2C91.2929 10.5173 91.6769 10 92.1783 9.648C92.6903 9.28533 93.2929 9.104 93.9863 9.104ZM94.7383 11.04C94.3649 11.04 94.0503 11.1413 93.7943 11.344C93.5489 11.536 93.3623 11.8293 93.2343 12.224C93.1169 12.608 93.0583 13.0933 93.0583 13.68C93.0583 14.5547 93.1969 15.2107 93.4743 15.648C93.7516 16.0747 94.1836 16.288 94.7703 16.288C95.0796 16.288 95.3463 16.2507 95.5703 16.176C95.7943 16.0907 95.9756 15.9573 96.1143 15.776C96.2636 15.584 96.3756 15.3387 96.4503 15.04C96.5249 14.7413 96.5623 14.3787 96.5623 13.952V13.664C96.5623 13.0347 96.4983 12.528 96.3703 12.144C96.2423 11.76 96.0449 11.4827 95.7783 11.312C95.5116 11.1307 95.1649 11.04 94.7383 11.04ZM104.879 9.104C105.69 9.104 106.383 9.25867 106.959 9.568C107.546 9.87733 107.999 10.3253 108.319 10.912C108.639 11.4987 108.799 12.2187 108.799 13.072V14.224H103.167C103.189 14.896 103.386 15.424 103.759 15.808C104.143 16.192 104.671 16.384 105.343 16.384C105.909 16.384 106.421 16.3307 106.879 16.224C107.338 16.1067 107.813 15.9307 108.303 15.696V17.536C107.877 17.7493 107.423 17.904 106.943 18C106.474 18.1067 105.903 18.16 105.231 18.16C104.357 18.16 103.583 18 102.911 17.68C102.239 17.3493 101.711 16.8533 101.327 16.192C100.943 15.5307 100.751 14.6987 100.751 13.696C100.751 12.672 100.922 11.824 101.263 11.152C101.615 10.4693 102.101 9.95733 102.719 9.616C103.338 9.27467 104.058 9.104 104.879 9.104ZM104.895 10.8C104.437 10.8 104.053 10.9493 103.743 11.248C103.445 11.5467 103.269 12.0107 103.215 12.64H106.559C106.559 12.288 106.495 11.9733 106.367 11.696C106.25 11.4187 106.069 11.2 105.823 11.04C105.578 10.88 105.269 10.8 104.895 10.8ZM115.612 9.104C115.73 9.104 115.868 9.10933 116.028 9.12C116.188 9.13067 116.316 9.14667 116.412 9.168L116.236 11.408C116.162 11.3867 116.05 11.3707 115.9 11.36C115.762 11.3387 115.639 11.328 115.532 11.328C115.223 11.328 114.924 11.3707 114.636 11.456C114.348 11.5307 114.087 11.6533 113.852 11.824C113.628 11.9947 113.447 12.224 113.308 12.512C113.18 12.7893 113.116 13.136 113.116 13.552V18H110.732V9.264H112.54L112.892 10.736H113.004C113.175 10.4373 113.388 10.1653 113.644 9.92C113.9 9.67467 114.194 9.47733 114.524 9.328C114.866 9.17867 115.228 9.104 115.612 9.104Z" fill="#64748B"/>
<path d="M27.5 1L37 9L27.5 4.51785L18 9L27.5 1Z" fill="#64748B"/>
<rect x="19" y="20.7586" width="6" height="1.44828" fill="#64748B"/>
</svg>
